<svg width="159" height="48" viewBox="0 0 159 48" fill="none" xmlns="http://www.w3.org/2000/svg">
<path d="M60.463 37.246C60.0631 37.246 59.7351 37.1155 59.47 36.8499C59.2093 36.5889 59.0745 36.2559 59.0745 35.8598V23.4606C59.0925 22.0294 59.4295 20.7423 60.0811 19.5991C60.7326 18.4559 61.6179 17.5558 62.7412 16.8942C63.8646 16.2326 65.1318 15.8996 66.5428 15.8996C67.9717 15.8996 69.2479 16.2326 70.3712 16.8942C71.4946 17.5558 72.3843 18.4559 73.0449 19.5991C73.7054 20.7423 74.038 22.0294 74.038 23.4606C74.038 24.8918 73.7369 26.1745 73.1303 27.3086C72.5236 28.4428 71.6968 29.3384 70.6453 30C69.5939 30.6616 68.4121 30.9946 67.091 30.9946C66.0215 30.9946 65.0419 30.7741 64.1477 30.3286C63.2535 29.883 62.4851 29.2799 61.856 28.5193V35.8598C61.856 36.2559 61.7302 36.5889 61.4741 36.8499C61.2134 37.1155 60.8809 37.246 60.463 37.246ZM66.5428 28.5463C67.4639 28.5463 68.2907 28.3258 69.0142 27.8802C69.7376 27.4347 70.3128 26.8316 70.7397 26.0575C71.1666 25.2879 71.3778 24.4238 71.3778 23.4606C71.3778 22.484 71.1666 21.6064 70.7397 20.8368C70.3128 20.0672 69.7376 19.4596 69.0142 19.014C68.2907 18.5685 67.4684 18.3479 66.5428 18.3479C65.6396 18.3479 64.8172 18.5685 64.0848 19.014C63.3524 19.4596 62.7772 20.0672 62.3593 20.8368C61.9414 21.6064 61.7347 22.484 61.7347 23.4606C61.7347 24.4193 61.9414 25.2879 62.3593 26.0575C62.7772 26.8271 63.3524 27.4347 64.0848 27.8802C64.8217 28.3213 65.6396 28.5463 66.5428 28.5463Z" fill="white"/>
<path d="M81.7083 30.8829C80.913 30.8829 80.2075 30.6669 79.5919 30.2303C78.9763 29.7937 78.4955 29.1997 78.154 28.4481C77.808 27.6964 77.6372 26.8323 77.6372 25.8512V11.0127C77.6372 10.6121 77.763 10.2881 78.0192 10.0361C78.2708 9.78402 78.5988 9.6535 78.9942 9.6535C79.3942 9.6535 79.7177 9.77952 79.9693 10.0361C80.221 10.2881 80.3513 10.6166 80.3513 11.0127V25.8557C80.3513 26.5263 80.4771 27.0799 80.7332 27.5119C80.9849 27.9485 81.3129 28.1645 81.7083 28.1645H82.3869C82.7508 28.1645 83.0429 28.2905 83.2676 28.5471C83.4923 28.7991 83.6091 29.1276 83.6091 29.5237C83.6091 29.9198 83.4383 30.2483 83.0923 30.5003C82.7508 30.7524 82.306 30.8829 81.7623 30.8829H81.7083Z" fill="white"/>
<path d="M91.6717 30.9896C90.3506 30.9896 89.1643 30.6611 88.1173 29.995C87.0658 29.3334 86.239 28.4378 85.6324 27.3036C85.0257 26.1695 84.7247 24.8868 84.7247 23.4556C84.7247 22.0244 85.0527 20.7372 85.7177 19.5941C86.3783 18.4509 87.2725 17.5508 88.4049 16.8892C89.5372 16.2276 90.8089 15.8946 92.2199 15.8946C93.6308 15.8946 94.898 16.2276 96.0214 16.8892C97.1448 17.5508 98.0345 18.4509 98.695 19.5941C99.3556 20.7372 99.6881 22.0244 99.6881 23.4556H98.6276C98.6276 24.8868 98.3266 26.1695 97.7199 27.3036C97.1133 28.4378 96.2865 29.3334 95.235 29.995C94.1745 30.6611 92.9928 30.9896 91.6717 30.9896ZM92.2154 28.5458C93.1365 28.5458 93.9634 28.3252 94.6868 27.8797C95.4103 27.4341 95.9809 26.831 96.3988 26.0569C96.8167 25.2873 97.0234 24.4232 97.0234 23.4601C97.0234 22.4835 96.8167 21.6058 96.3988 20.8362C95.9809 20.0666 95.4103 19.459 94.6868 19.0135C93.9634 18.5679 93.141 18.3474 92.2154 18.3474C91.3122 18.3474 90.4899 18.5679 89.7574 19.0135C89.025 19.459 88.4453 20.0666 88.0184 20.8362C87.5915 21.6058 87.3803 22.4835 87.3803 23.4601C87.3803 24.4187 87.5915 25.2873 88.0184 26.0569C88.4453 26.8265 89.025 27.4341 89.7574 27.8797C90.4899 28.3207 91.3077 28.5458 92.2154 28.5458ZM98.2951 30.9086C97.8952 30.9086 97.5672 30.7781 97.302 30.5125C97.0414 30.2515 96.9066 29.9185 96.9066 29.5179V25.3593L97.4234 22.479L99.6746 23.4556V29.5224C99.6746 29.923 99.5443 30.2515 99.2792 30.517C99.0231 30.7781 98.6905 30.9086 98.2951 30.9086Z" fill="white"/>
<path d="M109.687 30.2853C109.345 30.4293 109.021 30.4428 108.725 30.3258C108.428 30.2088 108.186 29.9747 108.006 29.6327L101.791 17.8051C101.612 17.463 101.589 17.13 101.724 16.8105C101.859 16.4954 102.101 16.2614 102.443 16.1174C102.784 15.9733 103.112 15.9598 103.418 16.0769C103.724 16.1939 103.962 16.4279 104.124 16.7699L110.068 28.5975C110.248 28.9441 110.316 29.2726 110.271 29.5922C110.226 29.9117 110.028 30.1413 109.687 30.2853ZM106.483 37.4097C106.303 37.4097 106.083 37.3557 105.831 37.2477C105.036 36.8832 104.816 36.3161 105.18 35.533L113.457 16.8015C113.816 16.0408 114.387 15.8248 115.169 16.1489C115.982 16.4954 116.211 17.0625 115.847 17.8636L107.543 36.5681C107.323 37.1307 106.972 37.4097 106.483 37.4097Z" fill="white"/>
<path d="M121.965 30.8829C121.169 30.8829 120.464 30.6669 119.848 30.2303C119.233 29.7937 118.752 29.1997 118.41 28.4481C118.064 27.6964 117.894 26.8323 117.894 25.8512V11.0127C117.894 10.6121 118.019 10.2881 118.276 10.0361C118.527 9.78402 118.855 9.6535 119.251 9.6535C119.651 9.6535 119.974 9.77952 120.226 10.0361C120.477 10.2881 120.608 10.6166 120.608 11.0127V25.8557C120.608 26.5263 120.734 27.0799 120.99 27.5119C121.241 27.9485 121.569 28.1645 121.965 28.1645H122.643C123.007 28.1645 123.299 28.2905 123.524 28.5471C123.749 28.7991 123.866 29.1276 123.866 29.5237C123.866 29.9198 123.695 30.2483 123.349 30.5003C123.007 30.7524 122.562 30.8829 122.019 30.8829H121.965Z" fill="white"/>
<path d="M132.509 30.9905C131.044 30.9905 129.75 30.6709 128.627 30.0273C127.504 29.3837 126.623 28.4971 125.98 27.363C125.338 26.2288 125.019 24.9281 125.019 23.4609C125.019 21.9757 125.338 20.6661 125.98 19.5319C126.623 18.3978 127.504 17.5111 128.627 16.8675C129.75 16.224 131.044 15.9044 132.509 15.9044C133.956 15.9044 135.241 16.2285 136.365 16.8675C137.488 17.5111 138.369 18.3978 139.012 19.5319C139.654 20.6661 139.973 21.9757 139.973 23.4609C139.973 24.9281 139.654 26.2288 139.025 27.363C138.391 28.4971 137.515 29.3837 136.392 30.0273C135.268 30.6709 133.974 30.9905 132.509 30.9905ZM132.509 28.5466C133.449 28.5466 134.284 28.3306 135.008 27.894C135.731 27.4575 136.297 26.8634 136.706 26.0983C137.115 25.3332 137.317 24.4601 137.317 23.4609C137.317 22.4618 137.115 21.5797 136.706 20.8101C136.297 20.0405 135.731 19.4374 135.008 19.0008C134.284 18.5643 133.453 18.3483 132.509 18.3483C131.57 18.3483 130.734 18.5643 130.011 19.0008C129.288 19.4374 128.717 20.0405 128.299 20.8101C127.881 21.5797 127.674 22.4618 127.674 23.4609C127.674 24.4601 127.881 25.3377 128.299 26.0983C128.717 26.8589 129.283 27.4575 130.011 27.894C130.734 28.3261 131.566 28.5466 132.509 28.5466Z" fill="white"/>
<path d="M150.266 30.9905C148.909 30.9905 147.709 30.6709 146.671 30.0273C145.628 29.3837 144.811 28.4971 144.213 27.363C143.615 26.2288 143.319 24.9281 143.319 23.4609C143.319 21.9757 143.638 20.6661 144.28 19.5319C144.923 18.3978 145.804 17.5111 146.927 16.8675C148.05 16.224 149.345 15.9044 150.809 15.9044C152.256 15.9044 153.541 16.2285 154.665 16.8675C155.788 17.5111 156.669 18.3978 157.312 19.5319C157.954 20.6661 158.273 21.9757 158.273 23.4609H156.673C156.673 24.9281 156.399 26.2288 155.847 27.363C155.294 28.4971 154.539 29.3837 153.582 30.0273C152.616 30.6709 151.51 30.9905 150.266 30.9905ZM150.751 37.0573C149.466 37.0573 148.262 36.8053 147.143 36.2967C146.019 35.7881 145.071 35.0455 144.294 34.0689C144.06 33.7583 143.97 33.4433 144.038 33.1193C144.101 32.7952 144.276 32.5297 144.568 32.3316C144.891 32.1156 145.233 32.0436 145.583 32.1156C145.934 32.1876 146.222 32.3677 146.437 32.6602C146.927 33.2768 147.543 33.7583 148.284 34.1004C149.026 34.4424 149.866 34.618 150.809 34.618C151.677 34.618 152.477 34.4109 153.213 33.9924C153.946 33.5738 154.53 32.9572 154.966 32.1426C155.402 31.328 155.617 30.3289 155.617 29.1542V25.2927L156.512 22.8984L158.278 23.4699V29.3432C158.278 30.7744 157.959 32.0751 157.33 33.2453C156.696 34.4154 155.815 35.3426 154.683 36.0311C153.541 36.7107 152.234 37.0573 150.751 37.0573ZM150.805 28.5466C151.744 28.5466 152.58 28.3306 153.303 27.894C154.027 27.4575 154.593 26.8634 155.002 26.0983C155.411 25.3332 155.613 24.4601 155.613 23.4609C155.613 22.4618 155.411 21.5797 155.002 20.8101C154.593 20.0405 154.027 19.4374 153.303 19.0008C152.58 18.5643 151.749 18.3483 150.805 18.3483C149.866 18.3483 149.03 18.5643 148.307 19.0008C147.583 19.4374 147.012 20.0405 146.595 20.8101C146.177 21.5797 145.97 22.4618 145.97 23.4609C145.97 24.4601 146.177 25.3377 146.595 26.0983C147.012 26.8589 147.579 27.4575 148.307 27.894C149.034 28.3261 149.866 28.5466 150.805 28.5466Z" fill="white"/>
<path d="M38.6627 31.2887C38.6672 31.2662 38.6717 31.2482 38.6806 31.2256C38.6762 31.2347 38.6717 31.2437 38.6717 31.2572C38.6672 31.2662 38.6627 31.2797 38.6627 31.2887Z" fill="white"/>
<path d="M23.2765 37.0624C23.245 37.0669 23.2091 37.0669 23.1776 37.0714C22.7867 37.1569 22.3733 37.1839 21.9509 37.1389C21.6947 37.1119 21.4521 37.0624 21.2139 36.9859C20.6028 36.8103 20.0276 36.4818 19.5468 36.0002C18.037 34.488 18.037 32.0307 19.5468 30.5185C20.4096 29.6544 21.5734 29.2853 22.6968 29.4068C22.8316 29.4068 22.9709 29.4158 23.1057 29.4383C24.9615 29.7309 26.9387 29.0648 28.2418 27.4401C29.837 25.4553 29.8415 22.5659 28.2508 20.5811C26.9836 19.0014 25.0873 18.3308 23.2809 18.5559C23.0428 18.5874 22.8046 18.5784 22.571 18.5469C22.544 18.5424 22.517 18.5379 22.4901 18.5334C22.4631 18.5289 22.4362 18.5244 22.4092 18.5199C21.2858 18.3398 20.4006 17.4577 20.2074 16.3371C20.1445 16.0445 20.1265 15.7385 20.1669 15.4324C20.3916 13.6232 19.7266 11.7284 18.1583 10.4593C16.1677 8.85255 13.2604 8.85705 11.2787 10.4728C9.70602 11.7554 9.04547 13.6682 9.29261 15.4865C9.29711 15.518 9.29711 15.545 9.3016 15.5765C9.32407 15.7205 9.34204 15.8645 9.34204 16.013C9.34204 17.2912 8.3984 18.3443 7.16718 18.5199C6.86162 18.5874 6.54258 18.6009 6.22354 18.5604C4.40366 18.3218 2.49391 18.9834 1.21326 20.5586C-0.399914 22.5434 -0.404408 25.4553 1.19978 27.4491C2.46695 29.0198 4.35873 29.6904 6.16512 29.4608C6.21006 29.4563 6.25499 29.4564 6.29993 29.4518C6.46619 29.4158 6.63694 29.4023 6.81219 29.4023C8.20967 29.4023 9.34204 30.5365 9.34204 31.9362C9.34204 32.0802 9.32856 32.2242 9.3016 32.3637C9.29711 32.4358 9.29261 32.5078 9.28363 32.5843C9.08142 34.209 9.59817 35.9057 10.8429 37.1524C12.0876 38.3991 13.7816 38.9166 15.4038 38.7141C15.5701 38.6916 15.7363 38.6871 15.9026 38.7006C15.9161 38.7006 15.934 38.7006 15.9475 38.6961C17.1832 38.6961 18.2123 39.5827 18.4324 40.7574C18.5313 41.1039 18.5672 41.4685 18.5178 41.8375C18.3156 43.4487 18.8234 45.1275 20.0456 46.3741C22.0812 48.4444 25.4648 48.5524 27.6217 46.6127C29.9808 44.4884 30.0527 40.8474 27.8374 38.6331C26.5927 37.3774 24.8986 36.8599 23.2765 37.0624ZM17.3944 28.1512C17.381 28.1602 17.363 28.1692 17.3495 28.1782C17.2596 28.2322 17.1698 28.2907 17.0799 28.3402C16.972 28.3987 16.8642 28.4482 16.7519 28.4977C15.4442 29.1098 13.9299 29.1368 12.6088 28.5607C10.6946 27.7731 9.34653 25.8919 9.34653 23.6911C9.34653 20.7837 11.7011 18.4254 14.604 18.4254C17.5068 18.4254 19.8614 20.7837 19.8614 23.6911C19.8659 25.5723 18.8728 27.2195 17.3944 28.1512Z" fill="white"/>
<path d="M46.7206 20.5771C45.4534 19.0019 43.5616 18.3358 41.7552 18.5608C41.4587 18.5968 41.1576 18.5833 40.8745 18.5248C39.9893 18.3898 39.2523 17.8002 38.9198 16.9946C38.6682 16.5265 38.5738 15.982 38.6412 15.4419C38.8434 13.8172 38.3267 12.1204 37.082 10.8738C35.8373 9.62709 34.1432 9.10952 32.521 9.31205C32.0672 9.37056 31.6178 9.31205 31.2044 9.14103C30.4091 8.88449 29.7845 8.24541 29.5508 7.4353C29.407 7.04374 29.3531 6.61619 29.407 6.18413C29.6272 4.43789 29.0071 2.60614 27.5512 1.34147C25.4168 -0.494778 22.2938 -0.440771 20.2313 1.47199C17.9351 3.60528 17.8811 7.20126 20.0785 9.39756C21.3232 10.6442 23.0172 11.1618 24.6394 10.9593C24.909 10.9233 25.1786 10.9323 25.4348 10.9773C26.666 11.1393 27.6366 12.1384 27.7489 13.3851C27.7804 13.6101 27.7804 13.8442 27.7534 14.0737C27.5512 15.6984 28.068 17.3951 29.3127 18.6418C30.5574 19.8885 32.2514 20.4061 33.8736 20.2035C34.0354 20.1855 34.1971 20.1765 34.3544 20.1855C34.7678 20.1855 35.1947 20.253 35.6216 20.4061C37.1718 20.9551 38.2098 22.4673 38.1559 24.1101C38.1245 25.1047 37.72 25.9823 37.0954 26.6349C37.055 26.6799 37.0146 26.7249 36.9696 26.7654C36.1114 27.625 34.9341 27.9581 33.8511 27.7555C33.222 27.6385 32.575 27.6115 31.9504 27.7465C30.9079 27.9761 29.9103 28.5252 29.1015 29.3443C26.985 31.4911 26.9221 34.979 28.9667 37.1933C31.1685 39.5787 34.8801 39.6327 37.1539 37.3599C38.066 36.4462 38.6008 35.2986 38.7625 34.1059C38.8434 33.4983 38.785 32.8862 38.6592 32.2832C38.6053 32.0221 38.5963 31.7566 38.6322 31.4911C38.6412 31.437 38.6457 31.383 38.6592 31.329C38.6637 31.311 38.6682 31.293 38.6727 31.2705C38.6772 31.2615 38.6772 31.248 38.6772 31.239C38.6817 31.23 38.6817 31.221 38.6861 31.2075C38.794 30.7845 39.0097 30.3794 39.3422 30.0464C39.9713 29.4163 40.852 29.1912 41.6384 29.3803C41.8586 29.4343 42.0833 29.4793 42.3079 29.4838C43.9571 29.5243 45.6152 28.8267 46.7565 27.3865C48.3382 25.3882 48.3248 22.5753 46.7206 20.5771Z" fill="white"/>
</svg>
