<svg width="48" height="48" viewBox="0 0 48 48" fill="none" xmlns="http://www.w3.org/2000/svg">
<path d="M38.6627 31.2887C38.6672 31.2662 38.6717 31.2482 38.6807 31.2256C38.6762 31.2347 38.6717 31.2437 38.6717 31.2572C38.6672 31.2662 38.6627 31.2797 38.6627 31.2887Z" fill="#004DA0"/>
<path d="M23.2765 37.0624C23.245 37.0669 23.2091 37.0669 23.1776 37.0714C22.7867 37.1569 22.3733 37.1839 21.9509 37.1389C21.6947 37.1119 21.4521 37.0624 21.2139 36.9859C20.6028 36.8103 20.0276 36.4818 19.5468 36.0002C18.037 34.488 18.037 32.0307 19.5468 30.5185C20.4096 29.6544 21.5734 29.2853 22.6968 29.4068C22.8316 29.4068 22.9709 29.4158 23.1057 29.4383C24.9615 29.7309 26.9387 29.0648 28.2418 27.4401C29.837 25.4553 29.8415 22.5659 28.2508 20.5811C26.9836 19.0014 25.0873 18.3308 23.2809 18.5559C23.0428 18.5874 22.8046 18.5784 22.571 18.5469C22.544 18.5424 22.517 18.5379 22.4901 18.5334C22.4631 18.5289 22.4362 18.5244 22.4092 18.5199C21.2858 18.3398 20.4006 17.4577 20.2074 16.3371C20.1445 16.0445 20.1265 15.7385 20.1669 15.4324C20.3916 13.6232 19.7266 11.7284 18.1583 10.4593C16.1677 8.85255 13.2604 8.85705 11.2787 10.4728C9.70602 11.7554 9.04547 13.6682 9.29261 15.4865C9.29711 15.518 9.29711 15.545 9.3016 15.5765C9.32407 15.7205 9.34204 15.8645 9.34204 16.013C9.34204 17.2912 8.3984 18.3443 7.16718 18.5199C6.86162 18.5874 6.54258 18.6009 6.22354 18.5604C4.40366 18.3218 2.49391 18.9834 1.21326 20.5586C-0.399914 22.5434 -0.404408 25.4553 1.19978 27.4491C2.46695 29.0198 4.35873 29.6904 6.16512 29.4608C6.21006 29.4563 6.25499 29.4564 6.29993 29.4518C6.46619 29.4158 6.63694 29.4023 6.81219 29.4023C8.20967 29.4023 9.34204 30.5365 9.34204 31.9362C9.34204 32.0802 9.32856 32.2242 9.3016 32.3637C9.29711 32.4358 9.29261 32.5078 9.28363 32.5843C9.08142 34.209 9.59817 35.9057 10.8429 37.1524C12.0876 38.3991 13.7816 38.9166 15.4038 38.7141C15.5701 38.6916 15.7363 38.6871 15.9026 38.7006C15.9161 38.7006 15.934 38.7006 15.9475 38.6961C17.1832 38.6961 18.2123 39.5827 18.4324 40.7574C18.5313 41.1039 18.5672 41.4685 18.5178 41.8375C18.3156 43.4487 18.8234 45.1275 20.0456 46.3741C22.0812 48.4444 25.4648 48.5524 27.6217 46.6127C29.9808 44.4884 30.0527 40.8474 27.8374 38.6331C26.5927 37.3774 24.8986 36.8599 23.2765 37.0624ZM17.3944 28.1512C17.381 28.1602 17.363 28.1692 17.3495 28.1782C17.2596 28.2322 17.1698 28.2907 17.0799 28.3402C16.972 28.3987 16.8642 28.4482 16.7519 28.4977C15.4442 29.1098 13.9299 29.1368 12.6088 28.5607C10.6946 27.7731 9.34653 25.8919 9.34653 23.6911C9.34653 20.7837 11.7011 18.4254 14.604 18.4254C17.5068 18.4254 19.8614 20.7837 19.8614 23.6911C19.8659 25.5723 18.8728 27.2195 17.3944 28.1512Z" fill="#004DA0"/>
<path d="M46.7205 20.5771C45.4534 19.0019 43.5616 18.3358 41.7552 18.5608C41.4586 18.5968 41.1576 18.5833 40.8745 18.5248C39.9892 18.3898 39.2523 17.8002 38.9198 16.9946C38.6681 16.5265 38.5738 15.982 38.6412 15.4419C38.8434 13.8172 38.3266 12.1204 37.0819 10.8738C35.8372 9.62709 34.1432 9.10952 32.521 9.31205C32.0672 9.37056 31.6178 9.31205 31.2044 9.14103C30.4091 8.88449 29.7845 8.24541 29.5508 7.4353C29.407 7.04374 29.3531 6.61619 29.407 6.18413C29.6272 4.43789 29.0071 2.60614 27.5512 1.34147C25.4167 -0.494778 22.2938 -0.440771 20.2312 1.47199C17.935 3.60528 17.8811 7.20126 20.0784 9.39756C21.3232 10.6442 23.0172 11.1618 24.6394 10.9593C24.909 10.9233 25.1786 10.9323 25.4347 10.9773C26.6659 11.1393 27.6365 12.1384 27.7489 13.3851C27.7803 13.6101 27.7803 13.8442 27.7534 14.0737C27.5512 15.6984 28.0679 17.3951 29.3126 18.6418C30.5573 19.8885 32.2514 20.4061 33.8736 20.2035C34.0353 20.1855 34.1971 20.1765 34.3544 20.1855C34.7678 20.1855 35.1947 20.253 35.6215 20.4061C37.1718 20.9551 38.2098 22.4673 38.1559 24.1101C38.1244 25.1047 37.72 25.9823 37.0954 26.6349C37.055 26.6799 37.0145 26.7249 36.9696 26.7654C36.1113 27.625 34.934 27.9581 33.8511 27.7555C33.222 27.6385 32.5749 27.6115 31.9503 27.7465C30.9078 27.9761 29.9103 28.5252 29.1014 29.3443C26.985 31.4911 26.9221 34.979 28.9666 37.1933C31.1685 39.5787 34.8801 39.6327 37.1538 37.3599C38.066 36.4462 38.6007 35.2986 38.7625 34.1059C38.8434 33.4983 38.785 32.8862 38.6592 32.2832C38.6052 32.0221 38.5963 31.7566 38.6322 31.4911C38.6412 31.437 38.6457 31.383 38.6592 31.329C38.6637 31.311 38.6681 31.293 38.6726 31.2705C38.6771 31.2615 38.6771 31.248 38.6771 31.239C38.6816 31.23 38.6816 31.221 38.6861 31.2075C38.794 30.7845 39.0097 30.3794 39.3422 30.0464C39.9713 29.4163 40.852 29.1912 41.6384 29.3803C41.8585 29.4343 42.0832 29.4793 42.3079 29.4838C43.957 29.5243 45.6151 28.8267 46.7565 27.3865C48.3382 25.3882 48.3247 22.5753 46.7205 20.5771Z" fill="#004DA0"/>
</svg>
